<svg width="20" height="13" viewBox="0 0 20 13" fill="none" xmlns="http://www.w3.org/2000/svg">
<path d="M19.4125 5.97705C17.6109 2.461 14.0442 0.082077 9.96032 0.082077C5.87641 0.082077 2.30877 2.46266 0.50817 5.97738C0.432174 6.12775 0.392578 6.29388 0.392578 6.46237C0.392578 6.63086 0.432174 6.79699 0.50817 6.94736C2.30977 10.4634 5.87641 12.8423 9.96032 12.8423C14.0442 12.8423 17.6119 10.4618 19.4125 6.94703C19.4885 6.79666 19.5281 6.63053 19.5281 6.46204C19.5281 6.29355 19.4885 6.12742 19.4125 5.97705ZM9.96032 11.2473C9.01416 11.2473 8.08924 10.9667 7.30254 10.4409C6.51583 9.91508 5.90267 9.16775 5.54059 8.29338C5.17851 7.41902 5.08377 6.4569 5.26836 5.52868C5.45295 4.60046 5.90857 3.74784 6.5776 3.07863C7.24664 2.40942 8.09905 1.95369 9.02703 1.76905C9.95501 1.58442 10.9169 1.67918 11.791 2.04135C12.6652 2.40353 13.4123 3.01684 13.938 3.80375C14.4636 4.59065 14.7442 5.5158 14.7442 6.46221C14.7445 7.09068 14.621 7.71305 14.3807 8.29375C14.1404 8.87444 13.788 9.40207 13.3437 9.84646C12.8994 10.2909 12.3719 10.6433 11.7914 10.8837C11.2108 11.124 10.5886 11.2476 9.96032 11.2473ZM9.96032 3.27214C9.67565 3.27612 9.39283 3.31848 9.11948 3.39808C9.3448 3.70435 9.45292 4.08125 9.42424 4.46042C9.39557 4.83959 9.23199 5.19593 8.96318 5.46481C8.69436 5.73369 8.33812 5.89731 7.95904 5.926C7.57997 5.95468 7.20317 5.84653 6.89697 5.62116C6.72262 6.26369 6.75409 6.94473 6.98696 7.56843C7.21984 8.19213 7.64239 8.72708 8.19514 9.09798C8.74788 9.46889 9.403 9.65708 10.0683 9.63605C10.7336 9.61503 11.3755 9.38586 11.9037 8.9808C12.432 8.57574 12.8199 8.01517 13.013 7.37802C13.206 6.74086 13.1945 6.05919 12.9799 5.42895C12.7654 4.79871 12.3586 4.25164 11.8169 3.86473C11.2753 3.47783 10.6259 3.27057 9.96032 3.27214Z" fill="white"/>
</svg>
