<svg width="18" height="15" viewBox="0 0 18 15" fill="none" xmlns="http://www.w3.org/2000/svg">
<path d="M8.83823 11.3288C6.76423 11.3288 5.08534 9.72344 4.93085 7.68909L2.06252 5.47235C1.68545 5.9454 1.33846 6.44551 1.05847 6.99238C0.995916 7.11611 0.963326 7.25281 0.963326 7.39146C0.963326 7.5301 0.995916 7.6668 1.05847 7.79053C2.5413 10.6837 5.4769 12.6413 8.83823 12.6413C9.57404 12.6413 10.2839 12.5319 10.968 12.3553L9.54916 11.2574C9.31483 11.3027 9.07688 11.3266 8.83823 11.3288ZM17.4192 12.9174L14.3963 10.5812C15.3146 9.80736 16.0698 8.85865 16.618 7.79026C16.6805 7.66653 16.7131 7.52983 16.7131 7.39118C16.7131 7.25254 16.6805 7.11584 16.618 6.9921C15.1352 4.09889 12.1996 2.14137 8.83823 2.14137C7.43045 2.14308 6.04554 2.49749 4.80999 3.17222L1.33135 0.483539C1.28599 0.44824 1.23412 0.422226 1.1787 0.406984C1.12328 0.391741 1.0654 0.387568 1.00837 0.394704C0.951333 0.401839 0.896265 0.420143 0.846309 0.44857C0.796352 0.476996 0.752487 0.514988 0.71722 0.560374L0.180467 1.25134C0.109264 1.34294 0.0773589 1.45907 0.0917679 1.57418C0.106177 1.6893 0.16572 1.79398 0.257302 1.8652L16.3451 14.2991C16.3905 14.3344 16.4423 14.3604 16.4978 14.3757C16.5532 14.3909 16.6111 14.3951 16.6681 14.3879C16.7251 14.3808 16.7802 14.3625 16.8302 14.3341C16.8801 14.3056 16.924 14.2677 16.9592 14.2223L17.4963 13.5313C17.5674 13.4397 17.5993 13.3235 17.5848 13.2084C17.5704 13.0933 17.5108 12.9886 17.4192 12.9174ZM12.3956 9.03466L11.321 8.20397C11.4115 7.94242 11.4595 7.66806 11.4632 7.39132C11.4685 6.98616 11.3788 6.5854 11.2011 6.22122C11.0235 5.85705 10.7629 5.53961 10.4403 5.29441C10.1177 5.04921 9.74215 4.88308 9.34372 4.80937C8.94529 4.73566 8.53512 4.75641 8.14617 4.86998C8.31105 5.0934 8.40024 5.36366 8.40073 5.64134C8.39666 5.73374 8.38254 5.82542 8.35863 5.91477L6.34587 4.3592C7.04504 3.77493 7.92707 3.45453 8.83823 3.45386C9.35539 3.45357 9.86753 3.55522 10.3454 3.753C10.8232 3.95077 11.2574 4.24079 11.6231 4.60647C11.9888 4.97216 12.2788 5.40633 12.4766 5.88418C12.6743 6.36202 12.776 6.87416 12.7757 7.39132C12.7757 7.98276 12.631 8.534 12.3956 9.03494V9.03466Z" fill="white"/>
</svg>
